<svg xmlns="http://www.w3.org/2000/svg" width="640" height="160" viewBox="0 0 640 160" fill="none">
  <g fill="#a6c2d3" opacity=".38">
    <circle cx="18" cy="17" r=".55"/><circle cx="63" cy="106" r=".6"/>
    <circle cx="109" cy="46" r=".5"/><circle cx="141" cy="142" r=".55"/>
    <circle cx="178" cy="22" r=".65"/><circle cx="217" cy="93" r=".5"/>
    <circle cx="256" cy="151" r=".55"/><circle cx="277" cy="39" r=".5"/>
    <circle cx="318" cy="117" r=".65"/><circle cx="356" cy="16" r=".5"/>
    <circle cx="404" cy="81" r=".6"/><circle cx="431" cy="142" r=".5"/>
    <circle cx="462" cy="35" r=".55"/><circle cx="511" cy="104" r=".5"/>
    <circle cx="549" cy="20" r=".6"/><circle cx="586" cy="136" r=".55"/>
    <circle cx="619" cy="62" r=".5"/><circle cx="37" cy="71" r=".5"/>
  </g>
  <g fill="#d2e6ef" opacity=".62">
    <circle cx="83" cy="28" r=".75"/><circle cx="126" cy="91" r=".7"/>
    <circle cx="193" cy="131" r=".8"/><circle cx="243" cy="62" r=".7"/>
    <circle cx="304" cy="19" r=".8"/><circle cx="375" cy="66" r=".65"/>
    <circle cx="451" cy="112" r=".8"/><circle cx="493" cy="14" r=".7"/>
    <circle cx="566" cy="80" r=".75"/><circle cx="626" cy="151" r=".65"/>
  </g>
  <g fill="#e2f5ff">
    <circle cx="54" cy="139" r="2.8" opacity=".05"/><circle cx="54" cy="139" r=".95" opacity=".8"/>
    <circle cx="165" cy="65" r="3.4" opacity=".06"/><circle cx="165" cy="65" r="1" opacity=".9"/>
    <circle cx="337" cy="93" r="3" opacity=".05"/><circle cx="337" cy="93" r=".9" opacity=".8"/>
    <circle cx="534" cy="51" r="3.5" opacity=".05"/><circle cx="534" cy="51" r="1" opacity=".85"/>
  </g>
</svg>
